<svg xmlns="http://www.w3.org/2000/svg" viewBox="0 0 48 48" fill="none">
  <ellipse cx="24" cy="20" rx="11" ry="12" fill="#C8A9A9"/>
  <ellipse cx="15" cy="10" rx="4" ry="6" fill="#B89898" transform="rotate(-20 15 10)"/>
  <ellipse cx="33" cy="10" rx="4" ry="6" fill="#B89898" transform="rotate(20 33 10)"/>
  <ellipse cx="15" cy="11" rx="2" ry="3.5" fill="#D8B8B8" transform="rotate(-20 15 11)"/>
  <ellipse cx="33" cy="11" rx="2" ry="3.5" fill="#D8B8B8" transform="rotate(20 33 11)"/>
  <circle cx="20" cy="18" r="1.8" fill="#1D1D1F"/>
  <circle cx="28" cy="18" r="1.8" fill="#1D1D1F"/>
  <circle cx="20.5" cy="17.5" r="0.6" fill="#fff"/>
  <circle cx="28.5" cy="17.5" r="0.6" fill="#fff"/>
  <ellipse cx="24" cy="24" rx="2.2" ry="1.5" fill="#1D1D1F"/>
  <path d="M22 26.5 Q24 28 26 26.5" stroke="#1D1D1F" stroke-width="1.2" fill="none" stroke-linecap="round"/>
  <circle cx="16" cy="23" r="2" fill="#E8C8C8" opacity="0.6"/>
  <circle cx="32" cy="23" r="2" fill="#E8C8C8" opacity="0.6"/>
  <ellipse cx="24" cy="40" rx="14" ry="10" fill="#C8A9A9"/>
  <ellipse cx="16" cy="42" rx="3" ry="4" fill="#B89898"/>
  <ellipse cx="32" cy="42" rx="3" ry="4" fill="#B89898"/>
</svg>
